<?xml version="1.0" encoding="UTF-8"?>
<svg width="242px" height="60px" viewBox="0 0 242 60" version="1.1" xmlns="http://www.w3.org/2000/svg" xmlns:xlink="http://www.w3.org/1999/xlink">
    <!-- Generator: Sketch 58 (84663) - https://sketch.com -->
    <title>logo-databench</title>
    <desc>Created with Sketch.</desc>
    <defs>
        <linearGradient x1="36.0550329%" y1="97.0088072%" x2="69.5040332%" y2="7.50284047%" id="linearGradient-1">
            <stop stop-color="#0092FF" offset="0%"></stop>
            <stop stop-color="#00D7FF" offset="100%"></stop>
        </linearGradient>
    </defs>
    <g id="设计还原" stroke="none" stroke-width="1" fill="none" fill-rule="evenodd">
        <g id="DataBench" transform="translate(-9.000000, -5.000000)">
            <g id="logo-databench" transform="translate(9.000000, 5.000000)">
                <path d="M44.3272727,0 C49.1170877,0 53,3.8994554 53,8.70967742 C53,13.5198994 49.1170877,17.4193548 44.3272727,17.4193548 C43.7611131,17.4193548 43.2076241,17.3648739 42.6717205,17.2608477 C42.2459806,17.1782058 41.7162114,17.0037503 41.0824129,16.7374811 C40.3140012,16.4146466 39.4259419,16.6021995 38.8536812,17.2081667 L34.3262601,22.0022553 C33.9909598,22.3573089 33.9611486,22.9026124 34.2557477,23.2921002 C34.3035549,23.3553058 34.3452099,23.4127532 34.3807128,23.4644426 C35.1841076,24.634121 35.6545455,26.0522107 35.6545455,27.5806452 C35.6545455,28.9050839 35.3013034,30.1466671 34.6842729,31.2155601 C34.6531313,31.2695072 34.6163989,31.3295661 34.5740758,31.3957368 C34.310747,31.8074602 34.3835878,32.3492046 34.7463224,32.6767437 L40.4376819,37.8158803 C41.0108284,38.3334071 41.8307086,38.4747403 42.5440491,38.1789763 C43.2467693,37.8876158 43.8411772,37.7419355 44.3272727,37.7419355 C46.9882811,37.7419355 49.1454545,39.9082996 49.1454545,42.5806452 C49.1454545,45.2529907 46.9882811,47.4193548 44.3272727,47.4193548 C41.6662644,47.4193548 39.5090909,45.2529907 39.5090909,42.5806452 C39.5090909,42.1989986 39.59937,41.7306817 39.7799283,41.1756945 C40.0119217,40.4625861 39.8255137,39.6796178 39.297066,39.147558 L33.8392749,33.6524616 C33.4943443,33.305165 32.9487137,33.2586003 32.5499189,33.542422 C32.5305399,33.556214 32.5119706,33.5691914 32.4942109,33.5813542 C31.9735121,33.9379573 31.4040016,34.2279937 30.7978229,34.4392684 C30.0552272,34.6980892 29.2576021,34.8387097 28.4272727,34.8387097 C28.4272727,34.8387097 28.4272727,34.8387097 28.4272727,34.8387097 C27.9467249,34.8387097 27.5360788,35.1849393 27.4548788,35.6585771 L26.4279835,41.6477457 C26.2834229,42.4909338 26.6911552,43.3327056 27.4423895,43.7419868 C27.5816842,43.8178762 27.7024937,43.8887914 27.8048182,43.9547324 C30.2077914,45.5032822 31.8,48.2100701 31.8,51.2903226 C31.8,56.1005446 27.9170877,60 23.1272727,60 C18.3374577,60 14.4545455,56.1005446 14.4545455,51.2903226 C14.4545455,46.9404501 17.6298135,43.3353608 21.7796105,42.6851701 C21.833673,42.6766996 21.9030381,42.6684212 21.9877058,42.660335 C22.8333637,42.5795614 23.5357299,41.9733857 23.7392867,41.1486274 L25.2669978,34.9587449 C25.3745211,34.5230086 25.178584,34.0690006 24.7877648,33.8483476 C24.6909727,33.7936997 24.6081125,33.744245 24.5391842,33.6999836 C23.9085141,33.2950071 23.3446067,32.7943976 22.867738,32.2185173 C22.3769406,31.6258164 21.9783406,30.9533834 21.694043,30.2234175 C21.694043,30.2234175 21.694043,30.2234175 21.694043,30.2234175 C21.5659183,29.894443 21.2088032,29.7166724 20.8690856,29.8127562 C16.4289579,31.0685854 13.073704,32.0175729 10.803324,32.6597188 C10.803324,32.6597188 10.803324,32.6597188 10.803324,32.6597188 C10.1332061,32.8492524 9.62459974,33.396486 9.48452274,34.0786585 C9.46186604,34.1890095 9.43839606,34.2828494 9.41411279,34.3601784 C8.79851013,36.3205366 6.97363452,37.7419355 4.81818182,37.7419355 C2.15717348,37.7419355 0,35.5755714 0,32.9032258 C0,30.2308802 2.15717348,28.0645161 4.81818182,28.0645161 C6.33338139,28.0645161 7.68522484,28.7669067 8.56847837,29.8651535 C8.57837868,29.8774637 8.58842821,29.890238 8.59862696,29.9034764 C9.05789206,30.4995841 9.81288136,30.7874666 10.5524387,30.648457 C10.5839454,30.6425349 10.6141449,30.6368585 10.6430374,30.6314278 C12.8558496,30.2155003 16.1048573,29.6048061 20.3900605,28.7993452 C20.8783589,28.7075782 21.2252183,28.2712186 21.2044751,27.7748053 C21.2014917,27.7034081 21.2,27.6386881 21.2,27.5806452 C21.2,26.4039389 21.4788333,25.2926352 21.9737656,24.3097356 C21.9737656,24.3097356 21.9737656,24.3097356 21.9737656,24.3097356 C22.134694,23.9901435 22.0524197,23.6016827 21.7757632,23.3747504 L14.0445552,17.0341526 C13.4625216,16.5568193 12.6617706,16.4467038 11.9724999,16.7492201 C11.6893369,16.8734984 11.4464438,16.9671756 11.2438204,17.0302517 C10.4314183,17.2831504 9.56791143,17.4193548 8.67272727,17.4193548 C3.88291226,17.4193548 0,13.5198994 0,8.70967742 C0,3.8994554 3.88291226,0 8.67272727,0 C13.4625423,0 17.3454545,3.8994554 17.3454545,8.70967742 C17.3454545,9.76394647 17.1589325,10.7744653 16.8172207,11.7097682 C16.7301012,11.9482238 16.6006908,12.2314297 16.4289895,12.5593857 C16.0288353,13.3236524 16.1638449,14.2583689 16.7638974,14.8781785 L23.2396873,21.5671886 C23.5065142,21.8427821 23.9347522,21.8818655 24.247052,21.6591163 C24.247052,21.6591163 24.247052,21.6591163 24.247052,21.6591163 C25.4271216,20.8174269 26.8696535,20.3225806 28.4272727,20.3225806 C29.5729335,20.3225806 30.6563333,20.5902877 31.6188299,21.06681 C31.6471622,21.080837 31.6774041,21.0963276 31.7095556,21.1132819 C32.1371486,21.3387429 32.6648048,21.2260802 32.9630168,20.8456357 L36.9658298,15.7390391 C37.4992423,15.0585002 37.5349311,14.112234 37.0542758,13.3934624 C36.7746322,12.9752837 36.5668064,12.6162793 36.4307983,12.3164494 C35.9322723,11.2174486 35.6545455,9.9961345 35.6545455,8.70967742 C35.6545455,3.8994554 39.5374577,0 44.3272727,0 Z" id="路径" fill="url(#linearGradient-1)"></path>
                <path d="M95.7757993,24.4712693 L96.1210938,24.4726562 C98.6731898,24.4466145 100.71093,24.9283805 102.234375,25.9179687 C103.75782,26.9335988 104.532552,28.678373 104.558594,31.1523437 L104.558594,45 L100.476562,45 L100.476562,43.203125 L100.398438,43.203125 C100.020831,43.8932326 99.4348998,44.40104 98.640625,44.7265625 C97.8593711,45.0651059 96.7786527,45.234375 95.3984375,45.234375 C93.2520452,45.2097038 91.5731302,44.6708415 90.3616481,43.6177726 L90.1640625,43.4375 C88.8749936,42.2916609 88.2304688,40.8268318 88.2304688,39.0429687 C88.2304688,37.3372311 88.790359,35.9244848 89.9101562,34.8046875 C91.0299535,33.6588484 92.6705621,33.0729168 94.8320312,33.046875 L100.476562,33.046875 L100.476562,30.9179687 C100.501764,29.1916496 99.2038942,28.3250472 96.5829146,28.3181378 L96.3164062,28.3203125 C95.3007762,28.3203125 94.5000029,28.4244781 93.9140625,28.6328125 C93.3020803,28.8802096 92.8203143,29.2968721 92.46875,29.8828125 L89.265625,27.4414062 C90.7555163,25.4882715 92.9255541,24.4982346 95.7757993,24.4712693 Z M126.889081,24.4712693 L127.234375,24.4726562 C129.786471,24.4466145 131.824211,24.9283805 133.347656,25.9179687 C134.871101,26.9335988 135.645833,28.678373 135.671875,31.1523437 L135.671875,45 L131.589844,45 L131.589844,43.203125 L131.511719,43.203125 C131.134113,43.8932326 130.548181,44.40104 129.753906,44.7265625 C128.972652,45.0651059 127.891934,45.234375 126.511719,45.234375 C124.365326,45.2097038 122.686411,44.6708415 121.474929,43.6177726 L121.277344,43.4375 C119.988275,42.2916609 119.34375,40.8268318 119.34375,39.0429687 C119.34375,37.3372311 119.90364,35.9244848 121.023438,34.8046875 C122.143235,33.6588484 123.783843,33.0729168 125.945312,33.046875 L131.589844,33.046875 L131.589844,30.9179687 C131.615045,29.1916496 130.317175,28.3250472 127.696196,28.3181378 L127.429688,28.3203125 C126.414057,28.3203125 125.613284,28.4244781 125.027344,28.6328125 C124.415362,28.8802096 123.933596,29.2968721 123.582031,29.8828125 L120.378906,27.4414062 C121.868798,25.4882715 124.038835,24.4982346 126.889081,24.4712693 Z M173.394531,24.4726562 C175.712251,24.498698 177.671867,25.2604092 179.273438,26.7578125 C180.90105,28.2812576 181.727864,30.3775908 181.753906,33.046875 L181.753906,36.40625 L169.117188,36.40625 C169.117188,38.0338623 169.585933,39.2708291 170.523438,40.1171875 C171.395838,40.9765668 172.54166,41.40625 173.960938,41.40625 C175.614592,41.40625 177.092441,40.7487045 178.394531,39.4335937 L181.34375,41.953125 C179.273427,44.1666777 176.838556,45.2604168 174.039062,45.234375 C172.971349,45.234375 171.929693,45.0781266 170.914062,44.765625 C170.406247,44.5963533 169.911461,44.368491 169.429688,44.0820312 C168.921872,43.8346342 168.446617,43.5286477 168.003906,43.1640625 C167.144527,42.4088504 166.447919,41.3541734 165.914062,40 C165.328122,38.6979102 165.035156,37.0052187 165.035156,34.921875 C165.035156,32.9166566 165.28906,31.2500066 165.796875,29.921875 C166.30469,28.5677016 166.955725,27.5000039 167.75,26.71875 C168.557296,25.9244752 169.462235,25.3515643 170.464844,25 C171.454432,24.6484357 172.430985,24.4726562 173.394531,24.4726562 Z M215.152344,24.4726562 C216.727872,24.498698 218.114577,24.8242156 219.3125,25.4492187 C220.510423,26.0872428 221.552079,26.9400988 222.4375,28.0078125 L219.429688,30.6835937 C218.401037,29.3163994 217.027352,28.6067711 215.308594,28.5546875 C211.845035,28.5026039 210.08724,30.6119578 210.035156,34.8828125 C210.08724,39.1276254 211.845035,41.2174482 215.308594,41.1523437 C217.027352,41.126302 218.401037,40.423184 219.429688,39.0429687 L222.4375,41.71875 C221.552079,42.7343801 220.510423,43.5611947 219.3125,44.1992187 C218.114577,44.8632846 216.727872,45.2083332 215.152344,45.234375 C212.756498,45.234375 210.653655,44.4205811 208.84375,42.7929687 C206.968741,41.1653564 206.005209,38.5286641 205.953125,34.8828125 C206.005209,31.1978982 206.968741,28.5286541 208.84375,26.875 C210.653655,25.2473877 212.756498,24.4466145 215.152344,24.4726562 Z M74.96875,16.5234375 C78.7024926,16.5486655 81.5319288,18.0524677 83.4571373,21.0348878 L83.640625,21.328125 C84.3307326,22.3958387 84.7669262,23.5156191 84.9492188,24.6875 L84.9900392,25.0646495 C85.1060553,26.2728537 85.1640625,28.1718621 85.1640625,30.7617187 L85.1613185,31.5733181 C85.1430249,34.2022435 85.0332633,36.067111 84.8320312,37.1679687 C84.7278641,37.779951 84.5716156,38.3268205 84.3632812,38.8085937 C84.141926,39.2773461 83.8750016,39.7656225 83.5625,40.2734375 C82.7932654,41.5114245 81.7466773,42.5496921 80.4227085,43.3882666 L80.0859375,43.59375 C78.614576,44.5312547 76.8112086,45 74.6757812,45 L65.0078125,45 L65.0078125,16.5234375 L74.96875,16.5234375 Z M114.148438,18.5546875 L114.148438,24.7265625 L117.117188,24.7265625 L117.117188,27.8320312 L114.148438,27.8320312 L114.148438,39.6484375 C114.123842,40.6199412 114.552199,41.1210582 115.433521,41.1518013 L117.117188,41.1523437 L117.117188,45 L114.988281,45 C113.555982,45 112.384119,44.5572961 111.472656,43.671875 C110.535156,42.8255166 110.066406,41.6015705 110.066406,40 L110.066406,27.8320312 L108.035156,27.8320312 L108.035156,24.7265625 L110.066406,24.7265625 L110.066406,21.5546875 L114.148438,18.5546875 Z M153.042969,16.5234375 C155.842462,16.5494793 157.945305,17.2525973 159.351562,18.6328125 C160.77084,20.0260486 161.480469,21.8684781 161.480469,24.1601562 C161.506511,25.3320371 161.226565,26.4518176 160.640625,27.5195312 C160.341144,28.0273463 159.911461,28.5091123 159.351562,28.9648437 C158.791664,29.446617 158.101567,29.8828105 157.28125,30.2734375 L157.28125,30.3515625 C158.830737,30.7552104 160.0026,31.5690043 160.796875,32.7929687 C161.539066,34.0559959 161.910156,35.4296801 161.910156,36.9140625 C161.884114,39.3750123 161.115893,41.3216074 159.605469,42.7539062 C158.108065,44.2513096 156.239595,45 154,45 L142.007812,45 L142.007812,16.5234375 L153.042969,16.5234375 Z M195.464844,24.4726562 C197.14454,24.4726562 198.680983,25.0650982 200.074219,26.25 C201.454434,27.4479227 202.177083,29.2057176 202.242188,31.5234375 L202.242188,45 L198.160156,45 L198.160156,32.9296875 C198.160156,31.5104096 197.782556,30.4296912 197.027344,29.6875 C196.285153,28.9322879 195.328131,28.5546875 194.15625,28.5546875 C192.984369,28.5546875 192.020837,28.9322879 191.265625,29.6875 C190.497392,30.4296912 190.113281,31.5104096 190.113281,32.9296875 L190.113281,45 L186.03125,45 L186.03125,24.7265625 L190.113281,24.7265625 L190.113281,26.875 L190.191406,26.875 C191.532559,25.2734295 193.290354,24.4726562 195.464844,24.4726562 Z M229.351562,16.5234375 L229.351562,26.875 L229.429688,26.875 C230.77084,25.2734295 232.528635,24.4726562 234.703125,24.4726562 C236.382821,24.4726562 237.919264,25.0650982 239.3125,26.25 C240.692715,27.4479227 241.415364,29.2057176 241.480469,31.5234375 L241.480469,45 L237.398438,45 L237.398438,32.9296875 C237.398438,31.5104096 237.020837,30.4296912 236.265625,29.6875 C235.523434,28.9322879 234.566412,28.5546875 233.394531,28.5546875 C232.22265,28.5546875 231.259118,28.9322879 230.503906,29.6875 C229.735673,30.4296912 229.351562,31.5104096 229.351562,32.9296875 L229.351562,45 L225.269531,45 L225.269531,20.5234375 L229.351562,16.5234375 Z M100.476562,36.40625 L95.59375,36.40625 C93.2239465,36.4583336 92.0520832,37.2721275 92.078125,38.8476562 C92.078125,39.4750268 92.3310064,40.0163015 92.8367762,40.4714936 L92.9960938,40.6054687 C93.5401813,41.101193 94.4154588,41.366756 95.6219495,41.4021644 L95.90625,41.40625 C97.6119877,41.4322918 98.8164027,41.2304709 99.5195312,40.8007812 C100.157555,40.3710916 100.476562,39.3945389 100.476562,37.8710937 L100.476562,36.40625 Z M131.589844,36.40625 L126.707031,36.40625 C124.337228,36.4583336 123.165364,37.2721275 123.191406,38.8476562 C123.191406,39.4750268 123.444288,40.0163015 123.950057,40.4714936 L124.109375,40.6054687 L124.240813,40.7157809 C124.79008,41.140687 125.621547,41.3694798 126.735231,41.4021644 L127.019531,41.40625 L127.353994,41.4084202 C128.88363,41.4043696 129.976559,41.2018249 130.632812,40.8007812 C131.233306,40.3963675 131.55121,39.5075352 131.586532,38.1342599 L131.589844,37.8710937 L131.589844,36.40625 Z M74.4804688,20.6054687 L69.3242188,20.6054687 L69.3242188,40.9179687 L74.4804688,40.9179687 C76.9023559,40.9179687 78.6601508,40.0911541 79.7539062,38.4375 C80.2356795,37.8255178 80.541666,37.0507859 80.671875,36.1132812 L80.706934,35.7945045 C80.7841936,34.988078 80.82964,33.7433526 80.8432739,32.0603074 L80.8476562,30.9179687 C80.8476562,28.443998 80.7890631,26.6731824 80.671875,25.6054687 C80.5156242,24.5377551 80.1445342,23.6718783 79.5585938,23.0078125 C78.3606711,21.3541584 76.6679797,20.5533852 74.4804688,20.6054687 Z M152.964844,32.3632812 L146.324219,32.3632812 L146.324219,40.9179687 L152.964844,40.9179687 C154.566414,40.891927 155.738278,40.4557334 156.480469,39.609375 C157.22266,38.7760375 157.59375,37.7864641 157.59375,36.640625 C157.59375,35.4687441 157.22266,34.46615 156.480469,33.6328125 C155.738278,32.8124959 154.566414,32.389323 152.964844,32.3632812 Z M173.394531,28.3203125 C172.170567,28.3203125 171.167973,28.7044232 170.386719,29.4726562 C169.618486,30.279952 169.195313,31.4713463 169.117188,33.046875 L177.671875,33.046875 C177.619791,31.4713463 177.196619,30.279952 176.402344,29.4726562 C175.62109,28.7044232 174.618496,28.3203125 173.394531,28.3203125 Z M152.554688,20.3710937 L146.324219,20.3710937 L146.324219,28.515625 L152.554688,28.515625 C154.130216,28.515625 155.289059,28.1054729 156.03125,27.2851562 C156.786462,26.5299441 157.164062,25.5794328 157.164062,24.4335937 C157.164062,23.2877547 156.786462,22.3177123 156.03125,21.5234375 C155.289059,20.7812463 154.130216,20.3971355 152.554688,20.3710937 Z" id="形状结合" fill="#575E6E" fill-rule="nonzero"></path>
            </g>
        </g>
    </g>
</svg>